<svg xmlns:dc="http://purl.org/dc/elements/1.1/" xmlns:cc="http://creativecommons.org/ns#" xmlns:rdf="http://www.w3.org/1999/02/22-rdf-syntax-ns#" xmlns:svg="http://www.w3.org/2000/svg" xmlns="http://www.w3.org/2000/svg" xmlns:sodipodi="http://sodipodi.sourceforge.net/DTD/sodipodi-0.dtd" xmlns:inkscape="http://www.inkscape.org/namespaces/inkscape" version="1.1" x="0px" y="0px" viewBox="0 0 100 125"><g transform="translate(0,-952.36218)"><path style="color:#000000;enable-background:accumulate;" d="m 52.875,983.36892 c -0.49121,0.062 -0.89424,0.536 -0.875,1.0302 l 0,1.0302 c -2.47779,0.1677 -4.34288,0.8536 -7,-0.031 l 0,3.996 c 2.65712,0.8848 4.52221,0.1989 7,0.031 l 0,2.9658 -2,0 0,5.994 12,0 0,-2.0604 c 0,-1.9427 -2.01271,-3.9336 -4.09375,-3.9336 l -3.90625,0 0,-7.992 c 0.0226,-0.5776 -0.55092,-1.1028 -1.125,-1.0302 z m -12.78125,11.0202 c -2.08104,0 -4.09375,1.991 -4.09375,3.9336 l 0,2.06048 -2,0 0,4.995 8,0 0,-4.995 0,-5.99408 z m -23.07224,5.83428 c -0.0488,0.425 0.20924,0.867 0.60349,1.0339 l 4.5625,2.2789 c -0.4409,0.504 -0.75431,1.1371 -0.9375,1.842 l 6.75,0 0,-2.997 c -1.24549,-0.011 -2.50235,0 -3.59375,0.031 l -5.875,-2.93438 c -0.85866,-0.2369 -1.37087,0.069 -1.50974,0.74568 z M 48,1000.3832 l 0,6.993 -27,0 0,2.997 41,0 2.125,0 1.1875,-1.3425 c 0.334581,-0.3723 0.81362,-0.6116 1.3125,-0.6555 1.11945,0 2.274,0 3.40625,0 0.0754,-0.9548 0.0856,-1.9919 -0.0625,-2.8722 l 4.46875,-2.2477 c 0.410701,-0.1915 0.65307,-0.6875 0.551681,-1.1288 -0.10139,-0.4413 -0.53598,-0.782 -0.989181,-0.7755 -1.703,0.6041 -3.38144,1.6053 -5.03125,2.435 -0.773669,-0.8346 -1.85083,-1.4048 -2.96875,-1.4048 l -4,0 0,-1.998 z m 37.5625,3.0907 -5.90625,2.9657 c -0.83623,-0.1168 -1.68953,-0.062 -2.5625,-0.062 l 0,1.998 5.34375,0 c -0.19284,-0.293 -0.400279,-0.5665 -0.65625,-0.8117 l 4.65625,-2.3102 c 0.410701,-0.1915 0.65307,-0.6875 0.551681,-1.1288 -0.296351,-0.8059 -0.86733,-0.8923 -1.426681,-0.6511 z m -80.3795695,2.3138 c -0.35758,0.6586 -0.0648,1.1335 0.44207,1.4636 l 4.6562495,2.3102 c -0.25578,0.2452 -0.4679495,0.5186 -0.6562495,0.8117 l 5.3749995,0 0,-1.998 c -0.84395,-0.026 -1.76714,-0.01 -2.5625,0.062 l -5.9062495,-2.9657 c -0.60205,-0.2213 -1.02929,-0.1474 -1.34832,0.3163 z m 61.6295695,4.5855 -1.75,1.998 -60.0624995,0 c 0,3.996 3,8.991 4.9999995,8.991 l 77,0 8,-10.989 z" fill="#000000" stroke="none" marker="none" visibility="visible" display="inline" overflow="visible"/></g><text x="0" y="115" fill="#000000" font-size="5px" font-weight="bold" font-family="'Helvetica Neue', Helvetica, Arial-Unicode, Arial, Sans-serif">Created by zidney</text><text x="0" y="120" fill="#000000" font-size="5px" font-weight="bold" font-family="'Helvetica Neue', Helvetica, Arial-Unicode, Arial, Sans-serif">from the Noun Project</text></svg>