<svg xmlns="http://www.w3.org/2000/svg" xmlns:xlink="http://www.w3.org/1999/xlink" version="1.1" x="0px" y="0px" viewBox="0 0 100 125" enable-background="new 0 0 100 100" xml:space="preserve"><path d="M40.605,54.354"/><path fill="none" d="M36.469,42.284"/><path d="M33.54,47.159"/><path d="M27.373,49.863"/><polyline points="2.521,54.457 24.1,54.446 24.1,51.896 27.028,51.896 27.028,49.863 33.247,49.863 33.247,45.092 29.888,45.092   29.888,44.599 33.247,44.599 33.265,42.783 30.99,42.783 30.99,42.284 33.265,42.284 33.247,38.839 33.937,38.839 33.937,42.284   36.09,42.284 36.09,42.818 33.919,42.835 33.953,44.609 37.191,44.627 37.191,45.092 33.937,45.092 33.937,49.863 37.571,49.863   37.571,53.309 46.942,53.309 46.942,54.204 97.989,54.204 93.708,63.827 6.977,63.827 2.566,54.456 "/><path opacity="0.49" d="M87.461,22.658"/><path opacity="0.49" d="M82.008,21.284"/><path opacity="0.49" d="M84.006,26.756"/><path opacity="0.49" d="M84.019,26.756"/><path d="M84.012,18.964"/><path d="M84.43,30.657v-0.303c-0.052-0.067-0.082,0-0.082,0s0,0.749-0.015,0.92c-0.016,0.17-0.052,0.28-0.452,0.282  c-0.342,0-0.393-0.29-0.393-0.29l-0.029-0.868c-0.03-0.163-0.068-0.053-0.068-0.053s-0.007,0.699-0.007,0.914  c0,0.215-0.014,0.162-0.014,0.162l-2.106,1.098c-0.075,0.056-0.168-0.014-0.168-0.014l-0.256-0.412  c-0.121-0.279,0.078-0.567,0.078-0.567s1.536-2.036,1.747-2.271c0.211-0.234,0.224-0.689,0.233-0.779  c0.011-0.088-0.123-0.022-0.123-0.022s-3.371,0.667-3.727,0.712c-0.356,0.044-0.323-0.066-0.323-0.066s0-0.4,0-0.879  c0-0.479,0.301-0.69,0.301-0.69l3.85-3.86c0,0-0.011-0.123,0-0.545c0.013-0.422,0.8-3.227,0.969-3.715  c0.167-0.489,0.188-1.725,0.244-2.026c0.056-0.299,0.378-1.312,0.413-1.435c0.033-0.122,0.099-0.122,0.099-0.122h0.015  c0,0,0.066,0,0.102,0.122c0.032,0.122,0.354,1.136,0.411,1.435c0.056,0.301,0.077,1.537,0.244,2.026  c0.167,0.489,0.956,3.293,0.97,3.715c0.01,0.422,0,0.545,0,0.545l3.847,3.86c0,0,0.301,0.211,0.301,0.69c0,0.479,0,0.879,0,0.879  s0.035,0.11-0.321,0.066s-3.729-0.712-3.729-0.712s-0.133-0.066-0.121,0.022c0.01,0.089,0.023,0.545,0.234,0.779  c0.21,0.235,1.747,2.271,1.747,2.271s0.199,0.289,0.076,0.567l-0.255,0.412c0,0-0.093,0.07-0.168,0.014l-2.105-1.098  c0,0-0.016,0.053-0.016-0.162c0-0.214-0.008-0.914-0.008-0.914s-0.037-0.109-0.067,0.053l-0.028,0.868c0,0-0.051,0.312-0.394,0.29  c-0.342-0.023-0.438-0.112-0.452-0.282c-0.016-0.171-0.016-0.92-0.016-0.92s-0.029-0.067-0.08,0v0.303"/><path d="M94.814,24.839c0,5.636-4.57,10.206-10.205,10.206c-5.638,0-10.206-4.569-10.206-10.206c0-5.637,4.568-10.207,10.206-10.207  C90.244,14.632,94.814,19.202,94.814,24.839z M84.609,15.361c-5.234,0-9.478,4.243-9.478,9.478c0,5.234,4.243,9.477,9.478,9.477  c5.232,0,9.477-4.243,9.477-9.477C94.086,19.604,89.842,15.361,84.609,15.361z"/><text x="0" y="115" fill="#000000" font-size="5px" font-weight="bold" font-family="'Helvetica Neue', Helvetica, Arial-Unicode, Arial, Sans-serif">Created by Luke Anthony Firth</text><text x="0" y="120" fill="#000000" font-size="5px" font-weight="bold" font-family="'Helvetica Neue', Helvetica, Arial-Unicode, Arial, Sans-serif">from the Noun Project</text></svg>