<?xml version="1.0" encoding="UTF-8" standalone="no"?>
<svg
   xmlns:dc="http://purl.org/dc/elements/1.1/"
   xmlns:cc="http://creativecommons.org/ns#"
   xmlns:rdf="http://www.w3.org/1999/02/22-rdf-syntax-ns#"
   xmlns:svg="http://www.w3.org/2000/svg"
   xmlns="http://www.w3.org/2000/svg"
   xmlns:sodipodi="http://sodipodi.sourceforge.net/DTD/sodipodi-0.dtd"
   xmlns:inkscape="http://www.inkscape.org/namespaces/inkscape"
   version="1.1"
   x="0px"
   y="0px"
   viewBox="0 0 95.468002 44.862999"
   enable-background="new 0 0 100 100"
   xml:space="preserve"
   id="svg4842"
   inkscape:version="0.91 r13725"
   sodipodi:docname="carrier.svg"
   width="95.468002"
   height="44.862999"><metadata
     id="metadata4876"><rdf:RDF><cc:Work
         rdf:about=""><dc:format>image/svg+xml</dc:format><dc:type
           rdf:resource="http://purl.org/dc/dcmitype/StillImage" /><dc:title></dc:title></cc:Work></rdf:RDF></metadata><defs
     id="defs4874" /><sodipodi:namedview
     pagecolor="#ffffff"
     bordercolor="#666666"
     borderopacity="1"
     objecttolerance="10"
     gridtolerance="10"
     guidetolerance="10"
     inkscape:pageopacity="0"
     inkscape:pageshadow="2"
     inkscape:window-width="1829"
     inkscape:window-height="966"
     id="namedview4872"
     showgrid="false"
     fit-margin-top="0"
     fit-margin-left="0"
     fit-margin-right="0"
     fit-margin-bottom="0"
     inkscape:zoom="10.680141"
     inkscape:cx="107.46528"
     inkscape:cy="25.380193"
     inkscape:window-x="-8"
     inkscape:window-y="-8"
     inkscape:window-maximized="1"
     inkscape:current-layer="svg4842" /><path
     d="M 38.084,35.39"
     id="path4844"
     inkscape:connector-curvature="0" /><path
     d="M 33.948,23.32"
     id="path4846"
     inkscape:connector-curvature="0"
     style="fill:none" /><path
     d="M 31.019,28.195"
     id="path4848"
     inkscape:connector-curvature="0" /><path
     d="M 24.852,30.899"
     id="path4850"
     inkscape:connector-curvature="0" /><polyline
     points="2.521,54.457 24.1,54.446 24.1,51.896 27.028,51.896 27.028,49.863 33.247,49.863 33.247,45.092 29.888,45.092   29.888,44.599 33.247,44.599 33.265,42.783 30.99,42.783 30.99,42.284 33.265,42.284 33.247,38.839 33.937,38.839 33.937,42.284   36.09,42.284 36.09,42.818 33.919,42.835 33.953,44.609 37.191,44.627 37.191,45.092 33.937,45.092 33.937,49.863 37.571,49.863   37.571,53.309 46.942,53.309 46.942,54.204 97.989,54.204 93.708,63.827 6.977,63.827 2.566,54.456 "
     id="polyline4852"
     transform="translate(-2.521,-18.964)" /><path
     d="M 84.94,3.694"
     id="path4854"
     inkscape:connector-curvature="0"
     style="opacity:0.49000005" /><path
     d="M 79.487,2.32"
     id="path4856"
     inkscape:connector-curvature="0"
     style="opacity:0.49000005" /><path
     d="M 81.485,7.792"
     id="path4858"
     inkscape:connector-curvature="0"
     style="opacity:0.49000005" /><path
     d="M 81.498,7.792"
     id="path4860"
     inkscape:connector-curvature="0"
     style="opacity:0.49000005" /><path
     d="M 81.491,0"
     id="path4862"
     inkscape:connector-curvature="0" /><path
     d="m 81.909,25.993847 0,-0.303 c -0.052,-0.067 -0.082,0 -0.082,0 0,0 0,0.749 -0.015,0.92 -0.016,0.17 -0.052,0.28 -0.452,0.282 -0.342,0 -0.393,-0.29 -0.393,-0.29 l -0.029,-0.868 c -0.03,-0.163 -0.068,-0.053 -0.068,-0.053 0,0 -0.007,0.699 -0.007,0.914 0,0.215 -0.014,0.162 -0.014,0.162 l -2.106,1.098 c -0.075,0.056 -0.168,-0.014 -0.168,-0.014 l -0.256,-0.412 c -0.121,-0.279 0.078,-0.567 0.078,-0.567 0,0 1.536,-2.036 1.747,-2.271 0.211,-0.234 0.224,-0.689 0.233,-0.779 0.011,-0.088 -0.123,-0.022 -0.123,-0.022 0,0 -3.371,0.667 -3.727,0.712 -0.356,0.044 -0.323,-0.066 -0.323,-0.066 0,0 0,-0.4 0,-0.879 0,-0.479 0.301,-0.69 0.301,-0.69 l 3.85,-3.86 c 0,0 -0.011,-0.123 0,-0.545 0.013,-0.422 0.8,-3.227 0.969,-3.715 0.167,-0.489 0.188,-1.725 0.244,-2.026 0.056,-0.299 0.378,-1.312 0.413,-1.435 0.033,-0.122 0.099,-0.122 0.099,-0.122 l 0.015,0 c 0,0 0.066,0 0.102,0.122 0.032,0.122 0.354,1.136 0.411,1.435 0.056,0.301 0.077,1.537 0.244,2.026 0.167,0.489 0.956,3.293 0.97,3.715 0.01,0.422 0,0.545 0,0.545 l 3.847,3.86 c 0,0 0.301,0.211 0.301,0.69 0,0.479 0,0.879 0,0.879 0,0 0.035,0.11 -0.321,0.066 -0.356,-0.044 -3.729,-0.712 -3.729,-0.712 0,0 -0.133,-0.066 -0.121,0.022 0.01,0.089 0.023,0.545 0.234,0.779 0.21,0.235 1.747,2.271 1.747,2.271 0,0 0.199,0.289 0.076,0.567 l -0.255,0.412 c 0,0 -0.093,0.07 -0.168,0.014 l -2.105,-1.098 c 0,0 -0.016,0.053 -0.016,-0.162 0,-0.214 -0.008,-0.914 -0.008,-0.914 0,0 -0.037,-0.109 -0.067,0.053 l -0.028,0.868 c 0,0 -0.051,0.312 -0.394,0.29 -0.342,-0.023 -0.438,-0.112 -0.452,-0.282 -0.016,-0.171 -0.016,-0.92 -0.016,-0.92 0,0 -0.029,-0.067 -0.08,0 l 0,0.303"
     id="path4864"
     inkscape:connector-curvature="0" /><path
     d="m 92.133505,19.769191 c 0,5.636 -4.57,10.206 -10.205,10.206 -5.638,0 -10.206,-4.569 -10.206,-10.206 0,-5.637 4.568,-10.207 10.206,-10.207 5.635,0 10.205,4.57 10.205,10.207 z m -10.205,-9.478 c -5.234,0 -9.478,4.243 -9.478,9.478 0,5.234 4.243,9.477 9.478,9.477 5.232,0 9.477,-4.243 9.477,-9.477 0,-5.235 -4.244,-9.478 -9.477,-9.478 z"
     id="path4866"
     inkscape:connector-curvature="0" /></svg>