<?xml version="1.0" encoding="UTF-8" standalone="no"?>
<svg
   xmlns:dc="http://purl.org/dc/elements/1.1/"
   xmlns:cc="http://creativecommons.org/ns#"
   xmlns:rdf="http://www.w3.org/1999/02/22-rdf-syntax-ns#"
   xmlns:svg="http://www.w3.org/2000/svg"
   xmlns="http://www.w3.org/2000/svg"
   xmlns:sodipodi="http://sodipodi.sourceforge.net/DTD/sodipodi-0.dtd"
   xmlns:inkscape="http://www.inkscape.org/namespaces/inkscape"
   version="1.1"
   x="0px"
   y="0px"
   viewBox="0 0 96.097 34.063999"
   enable-background="new 0 0 100 100"
   xml:space="preserve"
   id="svg4136"
   inkscape:version="0.91 r13725"
   sodipodi:docname="destroyer.svg"
   width="96.097"
   height="34.063999"><metadata
     id="metadata4268"><rdf:RDF><cc:Work
         rdf:about=""><dc:format>image/svg+xml</dc:format><dc:type
           rdf:resource="http://purl.org/dc/dcmitype/StillImage" /><dc:title></dc:title></cc:Work></rdf:RDF></metadata><defs
     id="defs4266" /><sodipodi:namedview
     pagecolor="#ffffff"
     bordercolor="#666666"
     borderopacity="1"
     objecttolerance="10"
     gridtolerance="10"
     guidetolerance="10"
     inkscape:pageopacity="0"
     inkscape:pageshadow="2"
     inkscape:window-width="1829"
     inkscape:window-height="966"
     id="namedview4264"
     showgrid="false"
     fit-margin-top="0"
     fit-margin-left="0"
     fit-margin-right="0"
     fit-margin-bottom="0"
     inkscape:zoom="6.376"
     inkscape:cx="48.875"
     inkscape:cy="22.147103"
     inkscape:window-x="-8"
     inkscape:window-y="-8"
     inkscape:window-maximized="1"
     inkscape:current-layer="svg4136" /><g
     id="g4248"
     transform="translate(-1.125,-25.489)"><path
       d="m 1.125,51.305 c 14.836,1.658 22.231,1.166 22.231,1.166 l 0.717,-3.137 23.487,0 0,-10.758 3.943,0 -0.716,-13.087 0,13.087 13.805,0 0.717,6.455 9.144,0 0.718,4.303 c 6.992,0 22.051,-3.228 22.051,-3.228 -1.404,9.054 -4.661,13.447 -4.661,13.447 l -84.265,0 C 2.589,56.834 1.125,51.305 1.125,51.305 Z"
       id="path4250"
       inkscape:connector-curvature="0"
       style="fill:#000000" /><rect
       x="60.199001"
       y="39.382999"
       width="3.4960001"
       height="3.4960001"
       id="rect4252"
       style="fill:#000000" /><rect
       x="55.18"
       y="39.382999"
       width="3.4949999"
       height="3.4960001"
       id="rect4254"
       style="fill:#000000" /><circle
       cx="92.649002"
       cy="50.678001"
       r="0.986"
       id="circle4256"
       style="fill:#000000" /><ellipse
       cx="100"
       cy="59.865002"
       rx="0"
       ry="0.13500001"
       id="ellipse4258"
       style="fill:#000000" /></g></svg>