<svg xmlns="http://www.w3.org/2000/svg" xmlns:xlink="http://www.w3.org/1999/xlink" version="1.1" x="0px" y="0px" viewBox="0 0 30 37.5" xml:space="preserve"><g transform="translate(-390 -200)"><g xmlns="http://www.w3.org/2000/svg" xmlns:xlink="http://www.w3.org/1999/xlink"><path d="M417.009,216c0,0-2.261,0-5.467,0.072L411.025,212H412v-1h-4v-3h-1v3h-1v-6h-1v6h-2v1h1l-0.548,4.378    c-2.251,0.126-4.495,0.295-6.492,0.518c-0.035,0.004-0.066,0.009-0.101,0.013L394,214h-2v3.743c-1.241,0.346-2,0.759-2,1.257    s0.759,0.911,2,1.257V224h2l2.859-2.908c0.034,0.004,0.065,0.009,0.101,0.013c8.003,0.893,20.049,0.895,20.049,0.895    c1.652,0,2.991-1.344,2.991-3C420,217.344,418.661,216,417.009,216z M410,214h-2v-1h2V214z"/></g></g><text x="0" y="45" fill="#000000" font-size="5px" font-weight="bold" font-family="'Helvetica Neue', Helvetica, Arial-Unicode, Arial, Sans-serif">Created by Hea Poh Lin</text><text x="0" y="50" fill="#000000" font-size="5px" font-weight="bold" font-family="'Helvetica Neue', Helvetica, Arial-Unicode, Arial, Sans-serif">from the Noun Project</text></svg>