<?xml version="1.0" encoding="UTF-8" standalone="no"?>
<svg
   xmlns:dc="http://purl.org/dc/elements/1.1/"
   xmlns:cc="http://creativecommons.org/ns#"
   xmlns:rdf="http://www.w3.org/1999/02/22-rdf-syntax-ns#"
   xmlns:svg="http://www.w3.org/2000/svg"
   xmlns="http://www.w3.org/2000/svg"
   xmlns:sodipodi="http://sodipodi.sourceforge.net/DTD/sodipodi-0.dtd"
   xmlns:inkscape="http://www.inkscape.org/namespaces/inkscape"
   version="1.1"
   x="0px"
   y="0px"
   viewBox="0 0 30 19"
   xml:space="preserve"
   id="svg5418"
   inkscape:version="0.91 r13725"
   sodipodi:docname="submarine.svg"
   width="30"
   height="19"><metadata
     id="metadata5434"><rdf:RDF><cc:Work
         rdf:about=""><dc:format>image/svg+xml</dc:format><dc:type
           rdf:resource="http://purl.org/dc/dcmitype/StillImage" /><dc:title></dc:title></cc:Work></rdf:RDF></metadata><defs
     id="defs5432" /><sodipodi:namedview
     pagecolor="#ffffff"
     bordercolor="#666666"
     borderopacity="1"
     objecttolerance="10"
     gridtolerance="10"
     guidetolerance="10"
     inkscape:pageopacity="0"
     inkscape:pageshadow="2"
     inkscape:window-width="1829"
     inkscape:window-height="966"
     id="namedview5430"
     showgrid="false"
     fit-margin-top="0"
     fit-margin-left="0"
     fit-margin-right="0"
     fit-margin-bottom="0"
     inkscape:zoom="6.2933333"
     inkscape:cx="15"
     inkscape:cy="5.25"
     inkscape:window-x="-8"
     inkscape:window-y="-8"
     inkscape:window-maximized="1"
     inkscape:current-layer="svg5418" /><g
     transform="translate(-390,-205)"
     id="g5420"><g
       id="g5422"><path
         d="m 417.009,216 c 0,0 -2.261,0 -5.467,0.072 l -0.517,-4.072 0.975,0 0,-1 -4,0 0,-3 -1,0 0,3 -1,0 0,-6 -1,0 0,6 -2,0 0,1 1,0 -0.548,4.378 c -2.251,0.126 -4.495,0.295 -6.492,0.518 -0.035,0.004 -0.066,0.009 -0.101,0.013 L 394,214 l -2,0 0,3.743 c -1.241,0.346 -2,0.759 -2,1.257 0,0.498 0.759,0.911 2,1.257 l 0,3.743 2,0 2.859,-2.908 c 0.034,0.004 0.065,0.009 0.101,0.013 8.003,0.893 20.049,0.895 20.049,0.895 1.652,0 2.991,-1.344 2.991,-3 0,-1.656 -1.339,-3 -2.991,-3 z m -7.009,-2 -2,0 0,-1 2,0 0,1 z"
         id="path5424"
         inkscape:connector-curvature="0" /></g></g></svg>